<svg width="192" height="192" viewBox="0 0 192 192" fill="none" xmlns="http://www.w3.org/2000/svg">
<path d="M0 92.16C0 48.7152 0 26.993 13.4965 13.4965C26.993 0 48.7152 0 92.16 0H99.84C143.285 0 165.007 0 178.504 13.4965C192 26.993 192 48.7152 192 92.16V99.84C192 143.285 192 165.007 178.504 178.504C165.007 192 143.285 192 99.84 192H92.16C48.7152 192 26.993 192 13.4965 178.504C0 165.007 0 143.285 0 99.84V92.16Z" fill="#F9322C"/>
<rect x="79.7037" y="46" width="32.5926" height="100" fill="white"/>
<rect x="79.7037" y="46" width="32.5926" height="100" fill="white"/>
<rect x="79.7037" y="46" width="32.5926" height="100" fill="white"/>
<rect x="79.7037" y="46" width="32.5926" height="100" fill="white"/>
<rect x="79.7037" y="46" width="32.5926" height="100" fill="white"/>
<rect x="79.7037" y="46" width="32.5926" height="100" fill="white"/>
<rect x="46" y="112.296" width="32.5926" height="100" transform="rotate(-90 46 112.296)" fill="white"/>
<rect x="46" y="112.296" width="32.5926" height="100" transform="rotate(-90 46 112.296)" fill="white"/>
<rect x="46" y="112.296" width="32.5926" height="100" transform="rotate(-90 46 112.296)" fill="white"/>
<rect x="46" y="112.296" width="32.5926" height="100" transform="rotate(-90 46 112.296)" fill="white"/>
<rect x="46" y="112.296" width="32.5926" height="100" transform="rotate(-90 46 112.296)" fill="white"/>
<rect x="46" y="112.296" width="32.5926" height="100" transform="rotate(-90 46 112.296)" fill="white"/>
</svg>
