<svg width="1104" height="192" viewBox="0 0 1104 192" fill="none" xmlns="http://www.w3.org/2000/svg">
<g clip-path="url(#clip0_1_14)">
<path d="M0 92.16C0 48.7152 0 26.993 13.4965 13.4965C26.993 0 48.7152 0 92.16 0H99.84C143.285 0 165.007 0 178.504 13.4965C192 26.993 192 48.7152 192 92.16V99.84C192 143.285 192 165.007 178.504 178.504C165.007 192 143.285 192 99.84 192H92.16C48.7152 192 26.993 192 13.4965 178.504C0 165.007 0 143.285 0 99.84V92.16Z" fill="#F9322C"/>
<path d="M334.6 144V92.158L308.679 135.628H298.053L272.776 91.997V144H250.075V57.382H276.318L304.01 107.453L333.473 57.382H356.979L357.301 144H334.6ZM465.562 101.013C465.562 101.335 465.401 103.589 465.079 107.775H399.552C400.733 113.142 403.524 117.381 407.924 120.494C412.325 123.607 417.799 125.163 424.346 125.163C428.854 125.163 432.826 124.519 436.26 123.231C439.802 121.836 443.076 119.689 446.081 116.791L459.444 131.281C451.287 140.619 439.373 145.288 423.702 145.288C413.935 145.288 405.295 143.41 397.781 139.653C390.268 135.789 384.472 130.476 380.393 123.714C376.315 116.952 374.275 109.278 374.275 100.691C374.275 92.2117 376.261 84.591 380.232 77.829C384.311 70.9597 389.839 65.6467 396.815 61.89C403.899 58.026 411.788 56.094 420.482 56.094C428.962 56.094 436.636 57.9187 443.505 61.568C450.375 65.2173 455.741 70.4767 459.605 77.346C463.577 84.108 465.562 91.997 465.562 101.013ZM420.643 75.092C414.955 75.092 410.178 76.702 406.314 79.922C402.45 83.142 400.089 87.5427 399.23 93.124H441.895C441.037 87.65 438.675 83.303 434.811 80.083C430.947 76.7557 426.225 75.092 420.643 75.092ZM581.111 123.392V162.676H557.766V144H496.908V162.676H473.563V123.392H477.105C482.472 123.285 486.175 120.118 488.214 113.893C490.253 107.668 491.541 98.8127 492.078 87.328L493.205 57.382H568.714V123.392H581.111ZM514.779 89.099C514.457 97.9003 513.759 105.092 512.686 110.673C511.72 116.254 509.842 120.494 507.051 123.392H543.598V77.99H515.262L514.779 89.099ZM638.133 145.288C628.902 145.288 620.584 143.41 613.178 139.653C605.879 135.789 600.137 130.476 595.951 123.714C591.872 116.952 589.833 109.278 589.833 100.691C589.833 92.1043 591.872 84.43 595.951 77.668C600.137 70.906 605.879 65.6467 613.178 61.89C620.584 58.026 628.902 56.094 638.133 56.094C647.256 56.094 655.199 58.026 661.961 61.89C668.83 65.6467 673.821 71.067 676.934 78.151L657.453 88.616C652.945 80.6733 646.451 76.702 637.972 76.702C631.424 76.702 626.004 78.8487 621.711 83.142C617.417 87.4353 615.271 93.285 615.271 100.691C615.271 108.097 617.417 113.947 621.711 118.24C626.004 122.533 631.424 124.68 637.972 124.68C646.558 124.68 653.052 120.709 657.453 112.766L676.934 123.392C673.821 130.261 668.83 135.628 661.961 139.492C655.199 143.356 647.256 145.288 638.133 145.288ZM692.196 57.382H717.151V108.902L759.333 57.382H782.356V144H757.401V92.48L715.38 144H692.196V57.382ZM847.716 145.288C838.485 145.288 830.167 143.41 822.761 139.653C815.462 135.789 809.72 130.476 805.534 123.714C801.455 116.952 799.416 109.278 799.416 100.691C799.416 92.1043 801.455 84.43 805.534 77.668C809.72 70.906 815.462 65.6467 822.761 61.89C830.167 58.026 838.485 56.094 847.716 56.094C856.839 56.094 864.782 58.026 871.544 61.89C878.413 65.6467 883.404 71.067 886.517 78.151L867.036 88.616C862.528 80.6733 856.034 76.702 847.555 76.702C841.007 76.702 835.587 78.8487 831.294 83.142C827 87.4353 824.854 93.285 824.854 100.691C824.854 108.097 827 113.947 831.294 118.24C835.587 122.533 841.007 124.68 847.555 124.68C856.141 124.68 862.635 120.709 867.036 112.766L886.517 123.392C883.404 130.261 878.413 135.628 871.544 139.492C864.782 143.356 856.839 145.288 847.716 145.288Z" fill="#F9322C"/>
<rect x="79.7037" y="46" width="32.5926" height="100" fill="white"/>
<rect x="79.7037" y="46" width="32.5926" height="100" fill="white"/>
<rect x="79.7037" y="46" width="32.5926" height="100" fill="white"/>
<rect x="79.7037" y="46" width="32.5926" height="100" fill="white"/>
<rect x="79.7037" y="46" width="32.5926" height="100" fill="white"/>
<rect x="79.7037" y="46" width="32.5926" height="100" fill="white"/>
<rect x="46" y="112.296" width="32.5926" height="100" transform="rotate(-90 46 112.296)" fill="white"/>
<rect x="46" y="112.296" width="32.5926" height="100" transform="rotate(-90 46 112.296)" fill="white"/>
<rect x="46" y="112.296" width="32.5926" height="100" transform="rotate(-90 46 112.296)" fill="white"/>
<rect x="46" y="112.296" width="32.5926" height="100" transform="rotate(-90 46 112.296)" fill="white"/>
<rect x="46" y="112.296" width="32.5926" height="100" transform="rotate(-90 46 112.296)" fill="white"/>
<rect x="46" y="112.296" width="32.5926" height="100" transform="rotate(-90 46 112.296)" fill="white"/>
</g>
<defs>
<clipPath id="clip0_1_14">
<rect width="1104" height="192" fill="white"/>
</clipPath>
</defs>
</svg>
